<svg width="35" height="135" viewBox="0 0 35 135" fill="none" xmlns="http://www.w3.org/2000/svg">
<path d="M34.5 134.5L20 134.5C9.23044 134.5 0.499994 125.77 0.499995 115L0.50001 20C0.500012 9.23045 9.23046 0.500002 20 0.5L34.5 0.5L34.5 134.5Z" fill="#616161"/>
<path d="M34.5 134.5L20 134.5C9.23044 134.5 0.499994 125.77 0.499995 115L0.50001 20C0.500012 9.23045 9.23046 0.500002 20 0.5L34.5 0.5L34.5 134.5Z" stroke="#616161"/>
<path d="M10.7929 68.7071C10.4024 68.3166 10.4024 67.6834 10.7929 67.2929L17.1569 60.9289C17.5474 60.5384 18.1806 60.5384 18.5711 60.9289C18.9616 61.3195 18.9616 61.9526 18.5711 62.3431L12.9142 68L18.5711 73.6569C18.9616 74.0474 18.9616 74.6805 18.5711 75.0711C18.1806 75.4616 17.5474 75.4616 17.1569 75.0711L10.7929 68.7071ZM24.5 68L24.5 69L11.5 69L11.5 68L11.5 67L24.5 67L24.5 68Z" fill="#4CAF50"/>
</svg>
