<svg width="20" height="20" viewBox="0 0 20 20" fill="none" xmlns="http://www.w3.org/2000/svg">
<path d="M11.666 5.83333V0.383333C12.4369 0.674446 13.1371 1.12609 13.7202 1.70833L16.6235 4.61333C17.2064 5.19573 17.6584 5.89575 17.9494 6.66667H12.4993C12.2783 6.66667 12.0664 6.57887 11.9101 6.42259C11.7538 6.26631 11.666 6.05435 11.666 5.83333ZM18.3327 8.7375V15.8333C18.3314 16.938 17.8919 17.997 17.1108 18.7782C16.3297 19.5593 15.2707 19.9987 14.166 20H5.83268C4.72802 19.9987 3.66898 19.5593 2.88787 18.7782C2.10675 17.997 1.66734 16.938 1.66602 15.8333V4.16667C1.66734 3.062 2.10675 2.00296 2.88787 1.22185C3.66898 0.440735 4.72802 0.00132321 5.83268 0L9.59518 0C9.73102 0 9.86518 0.0108333 9.99935 0.02V5.83333C9.99935 6.49637 10.2627 7.13226 10.7316 7.6011C11.2004 8.06994 11.8363 8.33333 12.4993 8.33333H18.3127C18.3218 8.4675 18.3327 8.60167 18.3327 8.7375ZM11.666 15.8333C11.666 15.6123 11.5782 15.4004 11.4219 15.2441C11.2657 15.0878 11.0537 15 10.8327 15H6.66602C6.445 15 6.23304 15.0878 6.07676 15.2441C5.92048 15.4004 5.83268 15.6123 5.83268 15.8333C5.83268 16.0543 5.92048 16.2663 6.07676 16.4226C6.23304 16.5789 6.445 16.6667 6.66602 16.6667H10.8327C11.0537 16.6667 11.2657 16.5789 11.4219 16.4226C11.5782 16.2663 11.666 16.0543 11.666 15.8333ZM14.166 12.5C14.166 12.279 14.0782 12.067 13.9219 11.9107C13.7657 11.7545 13.5537 11.6667 13.3327 11.6667H6.66602C6.445 11.6667 6.23304 11.7545 6.07676 11.9107C5.92048 12.067 5.83268 12.279 5.83268 12.5C5.83268 12.721 5.92048 12.933 6.07676 13.0893C6.23304 13.2455 6.445 13.3333 6.66602 13.3333H13.3327C13.5537 13.3333 13.7657 13.2455 13.9219 13.0893C14.0782 12.933 14.166 12.721 14.166 12.5Z" fill="white"/>
</svg>
