<svg width="71" height="71" viewBox="0 0 71 71" fill="none" xmlns="http://www.w3.org/2000/svg">
<foreignObject x="-13.1" y="-17.1" width="99.2" height="99.2"><div xmlns="http://www.w3.org/1999/xhtml" style="backdrop-filter:blur(13.55px);clip-path:url(#bgblur_0_860_7948_clip_path);height:100%;width:100%"></div></foreignObject><g filter="url(#filter0_di_860_7948)" data-figma-bg-blur-radius="27.1">
<path d="M14 20C14 14.4772 18.4772 10 24 10H49C54.5228 10 59 14.4772 59 20V45C59 50.5228 54.5228 55 49 55H24C18.4772 55 14 50.5228 14 45V20Z" fill="url(#paint0_linear_860_7948)" fill-opacity="0.03" shape-rendering="crispEdges"/>
<path d="M24 10.5H49C54.2467 10.5 58.5 14.7533 58.5 20V45C58.5 50.2467 54.2467 54.5 49 54.5H24C18.7533 54.5 14.5 50.2467 14.5 45V20C14.5 14.7533 18.7533 10.5 24 10.5Z" stroke="url(#paint1_linear_860_7948)" shape-rendering="crispEdges"/>
<g clip-path="url(#clip1_860_7948)">
<path fill-rule="evenodd" clip-rule="evenodd" d="M36 45C28.8318 45 23 39.1682 23 32C23 24.8318 28.8318 19 36 19C43.1682 19 49 24.8318 49 32C49 39.1682 43.1682 45 36 45ZM42.7416 36.5668C42.9019 36.5668 43.0323 36.4364 43.0323 36.2761V28.1147L36.4181 33.3671C36.2957 33.4643 36.1478 33.5129 35.9999 33.5129C35.8521 33.5129 35.7042 33.4643 35.5818 33.3671L28.9676 28.1147V36.2761C28.9676 36.4364 29.0981 36.5668 29.2583 36.5668H42.7416ZM41.728 27.4332L36 31.9819L30.2719 27.4332H41.728ZM44.3772 27.7239V36.2762C44.3772 37.178 43.6434 37.9117 42.7416 37.9117H29.2583C28.3565 37.9117 27.6228 37.178 27.6228 36.2762V27.7239C27.6228 26.8221 28.3565 26.0884 29.2583 26.0884H42.7416C43.6434 26.0884 44.3772 26.8221 44.3772 27.7239Z" fill="#9E9E9E"/>
</g>
</g>
<defs>
<filter id="filter0_di_860_7948" x="-13.1" y="-17.1" width="99.2" height="99.2" filterUnits="userSpaceOnUse" color-interpolation-filters="sRGB">
<feFlood flood-opacity="0" result="BackgroundImageFix"/>
<feColorMatrix in="SourceAlpha" type="matrix" values="0 0 0 0 0 0 0 0 0 0 0 0 0 0 0 0 0 0 127 0" result="hardAlpha"/>
<feOffset dx="-1" dy="3"/>
<feGaussianBlur stdDeviation="6.5"/>
<feComposite in2="hardAlpha" operator="out"/>
<feColorMatrix type="matrix" values="0 0 0 0 0 0 0 0 0 0 0 0 0 0 0 0 0 0 0.35 0"/>
<feBlend mode="normal" in2="BackgroundImageFix" result="effect1_dropShadow_860_7948"/>
<feBlend mode="normal" in="SourceGraphic" in2="effect1_dropShadow_860_7948" result="shape"/>
<feColorMatrix in="SourceAlpha" type="matrix" values="0 0 0 0 0 0 0 0 0 0 0 0 0 0 0 0 0 0 127 0" result="hardAlpha"/>
<feOffset dy="1"/>
<feGaussianBlur stdDeviation="1"/>
<feComposite in2="hardAlpha" operator="arithmetic" k2="-1" k3="1"/>
<feColorMatrix type="matrix" values="0 0 0 0 0 0 0 0 0 0 0 0 0 0 0 0 0 0 0.25 0"/>
<feBlend mode="normal" in2="shape" result="effect2_innerShadow_860_7948"/>
</filter>
<clipPath id="bgblur_0_860_7948_clip_path" transform="translate(13.1 17.1)"><path d="M14 20C14 14.4772 18.4772 10 24 10H49C54.5228 10 59 14.4772 59 20V45C59 50.5228 54.5228 55 49 55H24C18.4772 55 14 50.5228 14 45V20Z"/>
</clipPath><linearGradient id="paint0_linear_860_7948" x1="36.5" y1="10" x2="36.5" y2="55" gradientUnits="userSpaceOnUse">
<stop offset="0.05" stop-color="white"/>
<stop offset="0.1" stop-color="white"/>
</linearGradient>
<linearGradient id="paint1_linear_860_7948" x1="14.4774" y1="11.2817" x2="66.2329" y2="33.9188" gradientUnits="userSpaceOnUse">
<stop stop-color="#8F8F8F"/>
<stop offset="0.265501" stop-color="#636363"/>
<stop offset="0.485577" stop-color="#00CD1F"/>
<stop offset="0.709213" stop-color="#636363"/>
<stop offset="1" stop-color="#8F8F8F"/>
</linearGradient>
<clipPath id="clip1_860_7948">
<rect width="26" height="26" fill="white" transform="translate(23 19)"/>
</clipPath>
</defs>
</svg>
