<svg width="64" height="64" viewBox="0 0 64 64" fill="none" xmlns="http://www.w3.org/2000/svg">
<path d="M58.3106 12.5608L42.3106 10.0508L43.0006 16.2308L54.4206 18.0208L50.7006 41.7308L45.7606 40.9608L46.4506 47.1408L49.7706 47.6608L48.8406 53.5908L45.0406 52.9908C44.4906 53.3808 43.8606 53.6508 43.1606 53.7308L24.3906 55.8308L50.8706 59.9808C51.9606 60.1508 52.9806 59.4108 53.1606 58.3108L59.9806 14.8408C60.1506 13.7508 59.4106 12.7308 58.3106 12.5508V12.5608Z" fill="#9E9E9E"/>
<path d="M35.7511 32.4217L34.5611 21.7617C32.4311 23.1817 30.2511 24.9817 28.1211 27.2417C30.1711 28.7817 32.1511 30.5917 34.0311 32.6117L35.7511 32.4217Z" fill="#9E9E9E"/>
<path d="M12.4592 22.0898L13.8792 34.8598L31.5292 32.8898C29.9492 31.2998 28.3592 29.9198 26.7692 28.7298C21.6692 24.8898 16.6592 22.9898 12.4492 22.0898H12.4592Z" fill="#9E9E9E"/>
<path d="M25.4686 21.4899C27.1186 21.3099 28.2986 19.8199 28.1186 18.1799C27.9386 16.5299 26.4486 15.3499 24.8086 15.5299C23.1686 15.7099 21.9786 17.1999 22.1586 18.8399C22.3386 20.4899 23.8286 21.6699 25.4686 21.4899Z" fill="#9E9E9E"/>
<path d="M44.7094 49.5316L39.8194 5.80158C39.6994 4.70158 38.7094 3.91158 37.6094 4.03158L5.80939 7.59158C4.70939 7.71158 3.91939 8.70158 4.03939 9.80158L8.92939 53.5316C9.04939 54.6316 10.0394 55.4216 11.1394 55.3016L42.9394 51.7516C44.0394 51.6316 44.8294 50.6416 44.7094 49.5416V49.5316ZM10.4094 21.7116L9.45939 13.2216L35.2894 10.3316L36.4394 20.5816L37.9594 34.1816L33.2594 34.7116L12.1194 37.0716L10.4094 21.7116ZM13.7794 42.9216C13.7194 42.3716 14.1094 41.8816 14.6594 41.8216L27.5794 40.3816C28.1394 40.3116 28.6194 40.7116 28.6894 41.2616C28.7494 41.8116 28.3594 42.3016 27.8094 42.3616L14.8894 43.8016C14.8894 43.8016 14.8094 43.8016 14.7794 43.8016C14.2794 43.8016 13.8394 43.4216 13.7894 42.9116L13.7794 42.9216ZM28.4694 48.3216L15.5494 49.7616C15.5494 49.7616 15.4694 49.7616 15.4394 49.7616C14.9394 49.7616 14.4994 49.3816 14.4494 48.8716C14.3894 48.3216 14.7794 47.8316 15.3294 47.7716L28.2494 46.3316C28.7994 46.2716 29.2894 46.6616 29.3594 47.2116C29.4194 47.7616 29.0294 48.2516 28.4794 48.3116L28.4694 48.3216ZM32.3294 46.8816L31.6594 40.9216L38.6194 40.1416L39.2894 46.1016L32.3294 46.8816Z" fill="#9E9E9E"/>
</svg>
