<svg width="50" height="50" viewBox="0 0 50 50" fill="none" xmlns="http://www.w3.org/2000/svg">
<g clip-path="url(#clip0_1490_16991)">
<path d="M22.1124 25.8823C21.8066 25.7756 21.1524 25.7188 20.1355 25.7188H18.7488C18.7062 25.7188 18.6777 25.7543 18.6777 25.7899V28.6414C18.6777 28.6841 18.7062 28.7125 18.7488 28.7125H20.3986C21.2022 28.7125 21.7071 28.6912 21.9275 28.6414C22.2617 28.5774 22.5248 28.4281 22.7382 28.1934C22.9444 27.9587 23.0511 27.6387 23.0511 27.2405C23.0511 26.9063 22.9728 26.6219 22.8093 26.3872C22.6457 26.1596 22.4182 25.989 22.1124 25.8823Z" fill="#9E9E9E"/>
<path d="M29.9783 23.6484C29.4876 23.6484 29.0823 23.8191 28.7623 24.1675C28.4565 24.5018 28.3214 24.8218 28.293 25.284C28.293 25.3267 28.3285 25.3693 28.3783 25.3693H31.5712C31.621 25.3693 31.6565 25.3267 31.6565 25.284C31.6565 24.8644 31.4574 24.452 31.1516 24.1391C30.8245 23.812 30.4405 23.6484 29.9783 23.6484Z" fill="#9E9E9E"/>
<path d="M18.7501 23.8548H19.7954C20.663 23.8548 21.2034 23.8405 21.4168 23.8192C21.8008 23.7765 22.0994 23.6414 22.3128 23.421C22.5332 23.2005 22.6399 22.909 22.6399 22.5463C22.6399 22.1979 22.5474 21.9205 22.3554 21.7001C22.1705 21.4868 21.8861 21.3517 21.5163 21.309C21.2959 21.2805 20.663 21.2734 19.6105 21.2734H18.743C18.7003 21.2734 18.6719 21.309 18.6719 21.3445V23.7908C18.679 23.8192 18.7145 23.8548 18.7501 23.8548Z" fill="#9E9E9E"/>
<path d="M25 9C16.1609 9 9 16.1609 9 25C9 33.8391 16.1609 41 25 41C33.8391 41 41 33.8391 41 25C41 16.1609 33.8391 9 25 9ZM27.6951 20.072C27.6951 19.8942 27.8444 19.7449 28.0222 19.7449H31.8053C31.9831 19.7449 32.1324 19.8942 32.1324 20.072V20.6196C32.1324 20.7973 31.9831 20.9467 31.8053 20.9467H28.0222C27.8444 20.9467 27.6951 20.7973 27.6951 20.6196V20.072ZM25 28.84C24.7653 29.3236 24.4453 29.7076 24.0471 29.992C23.6418 30.2836 23.144 30.4542 22.5538 30.5253C22.184 30.568 21.288 30.5893 20.2071 30.6036H16.5236C16.1396 30.6036 16.1111 30.568 16.1111 30.5324V19.4676C16.1111 19.4249 16.1396 19.3964 16.5236 19.3964H20.8613C21.3947 19.3964 22.0418 19.432 22.4756 19.5102C22.9022 19.5813 23.2862 19.7378 23.6276 19.9724C23.9689 20.2071 24.2462 20.52 24.4738 20.9111C24.7013 21.3022 24.8151 21.736 24.8151 22.2196C24.8151 22.7458 24.6729 23.2293 24.3956 23.6631C24.1467 24.0542 23.8196 24.3529 23.4213 24.5733C23.3644 24.6018 23.3716 24.6871 23.4284 24.7013C24.0187 24.9076 24.4809 25.2276 24.8151 25.6613C25.1778 26.1378 25.3556 26.7067 25.3556 27.3538C25.3484 27.8658 25.2347 28.3564 25 28.84ZM33.8889 26.8347C33.8889 26.8773 33.8533 26.92 33.8036 26.92H28.3351C28.2853 26.92 28.2498 26.9627 28.2498 27.0053C28.2782 27.6098 28.456 27.9867 28.7902 28.328C29.1387 28.6907 29.5653 28.7902 30.0844 28.7902C30.5609 28.7902 31.2933 28.648 31.5067 27.8516C31.5138 27.816 31.5564 27.7876 31.5991 27.7947L33.6756 27.816C33.7253 27.8231 33.7467 27.8729 33.7396 27.9298C33.7111 28.6338 33 29.5724 32.4027 29.9707C31.784 30.3902 31.0018 30.5964 30.0702 30.5964C28.5911 30.5964 27.496 30.1271 26.7849 29.1884C26.2231 28.4347 25.9458 27.4889 25.9458 26.344C25.9458 24.9787 26.3156 23.9049 27.048 23.1298C27.7876 22.3547 28.7191 21.9707 29.8427 21.9707C31.1084 21.9707 32.104 22.376 32.8364 23.1867C33.5476 23.9831 33.9102 24.6516 33.8889 26.8347Z" fill="#9E9E9E"/>
</g>
<defs>
<clipPath id="clip0_1490_16991">
<rect width="32" height="32" fill="white" transform="translate(9 9)"/>
</clipPath>
</defs>
</svg>
