<svg width="50" height="50" viewBox="0 0 50 50" fill="none" xmlns="http://www.w3.org/2000/svg">
<g clip-path="url(#clip0_1490_17042)">
<path fill-rule="evenodd" clip-rule="evenodd" d="M25 41C16.1776 41 9 33.8224 9 25C9 16.1776 16.1776 9 25 9C33.8224 9 41 16.1776 41 25C41 33.8224 33.8224 41 25 41ZM33.2974 30.6207C33.4946 30.6207 33.6552 30.4602 33.6552 30.2629V20.2181L25.5146 26.6826C25.3639 26.8022 25.1819 26.8621 24.9999 26.8621C24.818 26.8621 24.636 26.8022 24.4853 26.6826L16.3447 20.2181V30.2629C16.3447 30.4602 16.5053 30.6207 16.7026 30.6207H33.2974ZM32.0499 19.3793L25 24.9777L17.9501 19.3793H32.0499ZM35.3104 19.7371V30.263C35.3104 31.3729 34.4073 32.276 33.2974 32.276H16.7026C15.5926 32.276 14.6896 31.3729 14.6896 30.263V19.7371C14.6896 18.6272 15.5926 17.7242 16.7026 17.7242H33.2974C34.4073 17.7241 35.3104 18.6272 35.3104 19.7371Z" fill="#9E9E9E"/>
</g>
<defs>
<clipPath id="clip0_1490_17042">
<rect width="32" height="32" fill="white" transform="translate(9 9)"/>
</clipPath>
</defs>
</svg>
