<svg width="50" height="50" viewBox="0 0 50 50" fill="none" xmlns="http://www.w3.org/2000/svg">
<g clip-path="url(#clip0_1490_17025)">
<path d="M24.9999 34.3651C25.6902 34.3651 26.2498 33.8055 26.2498 33.1152C26.2498 32.4248 25.6902 31.8652 24.9999 31.8652C24.3096 31.8652 23.75 32.4248 23.75 33.1152C23.75 33.8055 24.3096 34.3651 24.9999 34.3651Z" fill="#9E9E9E"/>
<path d="M28.4878 16.2793H21.5137C21.1228 16.2793 20.8047 16.5826 20.8047 16.9546V30.1377C20.8047 30.5101 21.1226 30.8131 21.5137 30.8131H28.4878C28.8787 30.8131 29.1968 30.5098 29.1968 30.1377V16.9546C29.1966 16.5822 28.8787 16.2793 28.4878 16.2793Z" fill="#9E9E9E"/>
<path d="M24.9995 9C16.1633 9 9 16.1638 9 24.9997C9 33.8355 16.1633 41 24.9995 41C33.8356 41 40.9998 33.8359 40.9998 24.9997C40.9998 16.1634 33.8356 9 24.9995 9ZM31.2243 32.8956C31.2243 34.1178 30.2334 35.1088 29.0111 35.1088H20.9883C19.7661 35.1088 18.775 34.1179 18.775 32.8956V17.0345C18.775 15.8123 19.766 14.8212 20.9883 14.8212H29.0111C30.2333 14.8212 31.2243 15.8122 31.2243 17.0345V32.8956Z" fill="#9E9E9E"/>
</g>
<defs>
<clipPath id="clip0_1490_17025">
<rect width="32" height="32" fill="white" transform="translate(9 9)"/>
</clipPath>
</defs>
</svg>
