<svg width="50" height="50" viewBox="0 0 50 50" fill="none" xmlns="http://www.w3.org/2000/svg">
<g clip-path="url(#clip0_1490_17006)">
<path d="M20.7891 10.1653C22.0185 11.6334 25.0291 15.4629 27.4369 20.4134C30.4471 19.5666 33.6083 18.0649 36.7112 15.5763L37.4605 14.9755C34.5252 11.3342 30.0305 9 25.0001 9C23.3954 9 21.8454 9.2385 20.3828 9.68019L20.7891 10.1653Z" fill="#9E9E9E"/>
<path d="M37.8832 17.0393C34.8942 19.4364 31.667 21.1467 28.2363 22.1598C28.7144 23.2678 29.1309 24.368 29.4846 25.4564C32.6391 25.1881 36.2021 25.6298 40.0851 26.7725L40.8738 27.0045C40.9563 26.3478 40.9991 25.6789 40.9991 25.0002C40.9991 21.8807 40.1008 18.9675 38.5507 16.5039L37.8832 17.0393Z" fill="#9E9E9E"/>
<path d="M10.9457 19.6507C12.5356 20.2537 16.0592 21.3574 20.5018 21.3575C22.0937 21.3575 23.8037 21.2155 25.5849 20.8584C23.375 16.4299 20.6937 12.9711 19.3518 11.3686L18.5181 10.373C14.6384 12.0992 11.5682 15.3248 10.0469 19.3098L10.9457 19.6507Z" fill="#9E9E9E"/>
<path d="M15.158 36.8138C15.8628 34.7155 17.6286 30.8001 21.5362 28.1523C23.3166 26.9459 25.3565 26.1275 27.6142 25.7085C27.2582 24.6487 26.8531 23.6191 26.4161 22.6281C24.7349 22.9969 23.0084 23.2054 21.2399 23.2497C21.0031 23.2557 20.7678 23.2586 20.5354 23.2586C15.8864 23.2586 12.1451 22.1118 10.2803 21.4046L9.48131 21.1016C9.16756 22.35 9 23.6559 9 25.0003C9 30.0181 11.3224 34.5029 14.9481 37.4386L15.158 36.8138Z" fill="#9E9E9E"/>
<path d="M39.557 28.5702C35.8166 27.4696 32.6719 27.1263 30.0293 27.3008C30.2671 28.2068 30.4598 29.1026 30.6062 29.9856C31.1705 33.3894 31.0552 36.6435 30.2632 39.6578L30.1325 40.1551C35.2512 38.4171 39.213 34.1536 40.5291 28.8563L39.557 28.5702Z" fill="#9E9E9E"/>
<path d="M28.4489 39.1824C29.4886 35.2253 29.1664 31.2274 28.1637 27.5215C20.7967 28.7962 17.9476 34.3955 16.9347 37.4109L16.543 38.577C18.9982 40.1118 21.8968 41.0004 24.9994 41.0004C26.0418 41.0004 27.0608 40.899 28.0482 40.7078L28.4489 39.1824Z" fill="#9E9E9E"/>
</g>
<defs>
<clipPath id="clip0_1490_17006">
<rect width="32" height="32" fill="white" transform="translate(9 9)"/>
</clipPath>
</defs>
</svg>
