<svg width="50" height="50" viewBox="0 0 50 50" fill="none" xmlns="http://www.w3.org/2000/svg">
<g clip-path="url(#clip0_1490_16984)">
<path d="M25 9C16.1648 9 9 16.1648 9 25C9 33.8352 16.1648 41 25 41C33.8352 41 41 33.8352 41 25C41 16.1648 33.8352 9 25 9ZM20.3506 33.1875H16.4539V21.4641H20.3506V33.1875ZM18.4023 19.8633H18.377C17.0693 19.8633 16.2236 18.9631 16.2236 17.8381C16.2236 16.6877 17.0952 15.8125 18.4282 15.8125C19.7612 15.8125 20.5815 16.6877 20.6069 17.8381C20.6069 18.9631 19.7612 19.8633 18.4023 19.8633ZM34.4014 33.1875H30.5051V26.9158C30.5051 25.3396 29.9409 24.2646 28.531 24.2646C27.4546 24.2646 26.8135 24.9897 26.5317 25.6897C26.4287 25.9402 26.4036 26.2903 26.4036 26.6406V33.1875H22.5071C22.5071 33.1875 22.5581 22.564 22.5071 21.4641H26.4036V23.124C26.9214 22.3252 27.8479 21.189 29.9153 21.189C32.479 21.189 34.4014 22.8645 34.4014 26.4653V33.1875Z" fill="#9E9E9E"/>
</g>
<defs>
<clipPath id="clip0_1490_16984">
<rect width="32" height="32" fill="white" transform="translate(9 9)"/>
</clipPath>
</defs>
</svg>
