<svg width="54" height="54" viewBox="0 0 54 54" fill="none" xmlns="http://www.w3.org/2000/svg">
<g clip-path="url(#clip0_860_8027)">
<path d="M3.93754 54H32.0625C34.2225 54 36 52.2225 36 50.0625V21.9375C36 19.7775 34.2225 18 32.0625 18H3.93754C1.77754 18 0 19.7775 0 21.9375V50.0625C0 52.2225 1.77754 54 3.93754 54ZM11.25 41.0626V28.6875C11.25 28.1026 11.5425 27.5626 12.06 27.2475C12.555 26.9325 13.1625 26.91 13.68 27.18L26.055 33.3675C26.64 33.66 27 34.245 27 34.875C27 35.505 26.64 36.09 26.055 36.3825L13.68 42.57C13.4549 42.6825 13.1849 42.75 12.9375 42.75C12.6225 42.75 12.33 42.6599 12.06 42.5025C11.5425 42.1875 11.25 41.6475 11.25 41.0626Z" fill="#9E9E9E"/>
<path d="M47.25 31.5C50.9779 31.5 54 28.4779 54 24.75C54 21.0221 50.9779 18 47.25 18C43.5221 18 40.5 21.0221 40.5 24.75C40.5 28.4779 43.5221 31.5 47.25 31.5Z" fill="#9E9E9E"/>
<path d="M52.3125 42.75H42.1875C41.256 42.75 40.5 43.506 40.5 44.4375C40.5 45.369 41.256 46.125 42.1875 46.125H52.3125C53.244 46.125 54 45.369 54 44.4375C54 43.506 53.244 42.75 52.3125 42.75Z" fill="#9E9E9E"/>
<path d="M52.3125 49.5H42.1875C41.256 49.5 40.5 50.256 40.5 51.1875C40.5 52.119 41.256 52.875 42.1875 52.875H52.3125C53.244 52.875 54 52.119 54 51.1875C54 50.256 53.244 49.5 52.3125 49.5Z" fill="#9E9E9E"/>
<path d="M52.3125 36H42.1875C41.256 36 40.5 36.756 40.5 37.6875C40.5 38.619 41.256 39.375 42.1875 39.375H52.3125C53.244 39.375 54 38.619 54 37.6875C54 36.756 53.244 36 52.3125 36Z" fill="#9E9E9E"/>
<path d="M50.0625 0H3.93754C1.76627 0 0 1.76627 0 3.93754V9.56257C0 11.7337 1.76627 13.5 3.93754 13.5H50.0626C52.2337 13.5 54 11.7337 54 9.56246V3.93754C54 1.76627 52.2337 0 50.0625 0Z" fill="#9E9E9E"/>
</g>
<defs>
<clipPath id="clip0_860_8027">
<rect width="54" height="54" fill="white"/>
</clipPath>
</defs>
</svg>
