<svg width="54" height="54" viewBox="0 0 54 54" fill="none" xmlns="http://www.w3.org/2000/svg">
<path fill-rule="evenodd" clip-rule="evenodd" d="M9.96887 38.4237L18.3749 26.096C19.0634 25.0857 20.2086 24.4805 21.4326 24.4805C22.6566 24.4805 23.8019 25.0857 24.4904 26.096L31.7106 36.689C31.9784 37.0782 32.0684 37.562 31.9604 38.0232C31.5531 39.7647 29.9916 41.063 28.1264 41.063H11.3639C10.7384 41.063 10.1624 40.7165 9.87212 40.163C9.57962 39.6117 9.61562 38.9412 9.96887 38.4237Z" fill="#9E9E9E"/>
<path fill-rule="evenodd" clip-rule="evenodd" d="M10.8087 41.0613H5.6247C3.75945 41.0613 2.19795 39.7631 1.7907 38.0216C1.6827 37.5603 1.7727 37.0766 2.04045 36.6873L6.75645 29.7686C7.3347 28.9226 8.2932 28.4141 9.3192 28.4141C10.3429 28.4141 11.3037 28.9226 11.8819 29.7686L14.9914 34.3316C15.3829 34.9053 15.3829 35.6591 14.9914 36.2328L12.2014 40.3256C11.8887 40.7846 11.3667 41.0613 10.8087 41.0613Z" fill="#9E9E9E"/>
<path d="M12.375 25.875C13.6176 25.875 14.625 24.8676 14.625 23.625C14.625 22.3824 13.6176 21.375 12.375 21.375C11.1324 21.375 10.125 22.3824 10.125 23.625C10.125 24.8676 11.1324 25.875 12.375 25.875Z" fill="#9E9E9E"/>
<path fill-rule="evenodd" clip-rule="evenodd" d="M52.3125 4.5V9C52.3125 9.747 52.0155 10.4602 51.489 10.989C50.9603 11.5155 50.247 11.8125 49.5 11.8125H4.5C3.753 11.8125 3.03975 11.5155 2.511 10.989C1.9845 10.4602 1.6875 9.747 1.6875 9V4.5C1.6875 3.753 1.9845 3.03975 2.511 2.511C3.03975 1.9845 3.753 1.6875 4.5 1.6875H49.5C50.247 1.6875 50.9603 1.9845 51.489 2.511C52.0155 3.03975 52.3125 3.753 52.3125 4.5Z" fill="#9E9E9E"/>
<path fill-rule="evenodd" clip-rule="evenodd" d="M52.3125 45V49.5C52.3125 50.247 52.0155 50.9603 51.489 51.489C50.9603 52.0155 50.247 52.3125 49.5 52.3125H19.125C18.378 52.3125 17.6648 52.0155 17.136 51.489C16.6095 50.9603 16.3125 50.247 16.3125 49.5V45C16.3125 44.253 16.6095 43.5397 17.136 43.011C17.6648 42.4845 18.378 42.1875 19.125 42.1875H49.5C50.247 42.1875 50.9603 42.4845 51.489 43.011C52.0155 43.5397 52.3125 44.253 52.3125 45Z" fill="#9E9E9E"/>
<path fill-rule="evenodd" clip-rule="evenodd" d="M15.1875 45V49.5C15.1875 50.247 14.8905 50.9603 14.364 51.489C13.8352 52.0155 13.122 52.3125 12.375 52.3125H4.5C3.753 52.3125 3.03975 52.0155 2.511 51.489C1.9845 50.9603 1.6875 50.247 1.6875 49.5V45C1.6875 44.253 1.9845 43.5397 2.511 43.011C3.03975 42.4845 3.753 42.1875 4.5 42.1875H12.375C13.122 42.1875 13.8352 42.4845 14.364 43.011C14.8905 43.5397 15.1875 44.253 15.1875 45ZM5.0625 48.9375H11.8125V45.5625H5.0625V48.9375Z" fill="#9E9E9E"/>
<path fill-rule="evenodd" clip-rule="evenodd" d="M32.0625 16.875V37.125C32.0625 39.3008 30.2985 41.0625 28.125 41.0625H5.625C3.4515 41.0625 1.6875 39.3008 1.6875 37.125V16.875C1.6875 14.6992 3.4515 12.9375 5.625 12.9375H28.125C30.2985 12.9375 32.0625 14.6992 32.0625 16.875ZM28.6875 16.875C28.6875 16.5645 28.4355 16.3125 28.125 16.3125H5.625C5.3145 16.3125 5.0625 16.5645 5.0625 16.875V37.125C5.0625 37.4355 5.3145 37.6875 5.625 37.6875H28.125C28.4355 37.6875 28.6875 37.4355 28.6875 37.125V16.875Z" fill="#9E9E9E"/>
<path fill-rule="evenodd" clip-rule="evenodd" d="M52.3125 16.875V37.125C52.3125 39.3008 50.5485 41.0625 48.375 41.0625H37.125C34.9515 41.0625 33.1875 39.3008 33.1875 37.125V16.875C33.1875 14.6992 34.9515 12.9375 37.125 12.9375H48.375C50.5485 12.9375 52.3125 14.6992 52.3125 16.875ZM48.9375 16.875C48.9375 16.5645 48.6855 16.3125 48.375 16.3125H37.125C36.8145 16.3125 36.5625 16.5645 36.5625 16.875V37.125C36.5625 37.4355 36.8145 37.6875 37.125 37.6875H48.375C48.6855 37.6875 48.9375 37.4355 48.9375 37.125V16.875Z" fill="#9E9E9E"/>
</svg>
