<svg width="54" height="54" viewBox="0 0 54 54" fill="none" xmlns="http://www.w3.org/2000/svg">
<path d="M28.7494 44.9921C28.7274 43.7695 29.0385 42.5639 29.6494 41.5046L37.125 28.5604V27H38.025L39.9735 23.625H37.125V16.875H43.875V17.757C44.3581 17.412 44.907 17.1699 45.4876 17.0459C46.0682 16.9218 46.6681 16.9184 47.25 17.0359V10.125C47.25 8.63316 46.6574 7.20242 45.6025 6.14752C44.5476 5.09263 43.1168 4.5 41.625 4.5H9C7.50816 4.5 6.07742 5.09263 5.02252 6.14752C3.96763 7.20242 3.375 8.63316 3.375 10.125V40.5C3.375 41.2387 3.52049 41.9701 3.80318 42.6526C4.08586 43.3351 4.50019 43.9552 5.02252 44.4775C5.54485 44.9998 6.16495 45.4141 6.84741 45.6968C7.52986 45.9795 8.26131 46.125 9 46.125H28.7685L28.7494 44.9921ZM37.125 7.875H41.625C42.2217 7.875 42.794 8.11205 43.216 8.53401C43.6379 8.95597 43.875 9.52826 43.875 10.125V13.5H37.125V7.875ZM13.5 42.75H9C8.40326 42.75 7.83097 42.513 7.40901 42.091C6.98705 41.669 6.75 41.0967 6.75 40.5V37.125H13.5V42.75ZM13.5 33.75H6.75V27H13.5V33.75ZM13.5 23.625H6.75V16.875H13.5V23.625ZM13.5 13.5H6.75V10.125C6.75 9.52826 6.98705 8.95597 7.40901 8.53401C7.83097 8.11205 8.40326 7.875 9 7.875H13.5V13.5ZM19.1182 31.0793V20.6708C19.1183 20.2758 19.2222 19.8878 19.4197 19.5458C19.6172 19.2037 19.9012 18.9197 20.2433 18.7222C20.5853 18.5248 20.9733 18.4208 21.3683 18.4208C21.7632 18.4208 22.1512 18.5248 22.4932 18.7223L31.5068 23.9265C31.8488 24.124 32.1328 24.408 32.3302 24.7501C32.5277 25.0921 32.6317 25.4801 32.6317 25.875C32.6317 26.2699 32.5277 26.6579 32.3302 27C32.1328 27.342 31.8488 27.626 31.5068 27.8235L22.4932 33.0278C22.1512 33.2252 21.7632 33.3292 21.3683 33.3292C20.9733 33.3292 20.5853 33.2252 20.2433 33.0278C19.9012 32.8303 19.6172 32.5463 19.4197 32.2042C19.2222 31.8622 19.1183 31.4742 19.1182 31.0793Z" fill="#9E9E9E"/>
<path d="M43.8769 39.3678V40.4984C43.8747 41.0388 43.6781 41.5604 43.323 41.9677C42.9679 42.3751 42.4781 42.641 41.9431 42.7169L39.9766 46.1234H41.6269C42.3656 46.1234 43.0971 45.9779 43.7795 45.6953C44.462 45.4126 45.0821 44.9982 45.6044 44.4759C46.1267 43.9536 46.5411 43.3335 46.8238 42.651C47.1064 41.9686 47.2519 41.2371 47.2519 40.4984V33.5234L43.8769 39.3678Z" fill="#9E9E9E"/>
<path d="M42.4111 23.9062L32.1016 41.7611L37.9516 45.1361L48.2611 27.2812L42.4111 23.9062ZM42.7339 32.3438C42.5837 32.6 42.3382 32.7865 42.051 32.8624C41.7638 32.9383 41.4582 32.8976 41.2009 32.7491C40.9436 32.6005 40.7556 32.3562 40.6777 32.0695C40.5999 31.7828 40.6386 31.477 40.7854 31.2188L42.4729 28.2937C42.5463 28.1648 42.6444 28.0516 42.7616 27.9607C42.8789 27.8698 43.013 27.803 43.1562 27.7641C43.2993 27.7252 43.4488 27.715 43.5959 27.7342C43.7431 27.7533 43.8849 27.8013 44.0134 27.8755C44.1419 27.9497 44.2545 28.0486 44.3446 28.1664C44.4347 28.2843 44.5006 28.4188 44.5386 28.5622C44.5765 28.7057 44.5856 28.8552 44.5655 29.0022C44.5454 29.1492 44.4965 29.2908 44.4214 29.4187L42.7339 32.3438Z" fill="#9E9E9E"/>
<path d="M49.3863 25.3293L50.3279 23.6992C50.4754 23.4429 50.571 23.1602 50.6091 22.867C50.6473 22.5738 50.6273 22.276 50.5503 21.9906C50.4733 21.7051 50.3408 21.4377 50.1604 21.2035C49.9799 20.9693 49.7551 20.7729 49.4988 20.6257L47.5503 19.5007C47.0335 19.2023 46.4194 19.1214 45.843 19.2759C45.2666 19.4303 44.7752 19.8074 44.4768 20.3242L43.5352 21.9554L49.3863 25.3293Z" fill="#9E9E9E"/>
<path d="M31.1315 43.7969C31.0364 44.1749 30.991 44.5636 30.9965 44.9534L31.055 48.3903C31.0582 48.5845 31.1117 48.7746 31.2102 48.9421C31.3087 49.1096 31.4489 49.2487 31.6171 49.3459C31.7853 49.443 31.9758 49.495 32.1701 49.4967C32.3644 49.4984 32.5558 49.4498 32.7257 49.3555L35.7317 47.6871C36.0721 47.4968 36.3863 47.2631 36.6665 46.9919L31.1315 43.7969Z" fill="#9E9E9E"/>
</svg>
