<svg width="42" height="42" viewBox="0 0 42 42" fill="none" xmlns="http://www.w3.org/2000/svg">
<path d="M24.1155 19.4932H18.1054C17.743 19.4932 17.4492 19.1993 17.4492 18.8369V15.9563C17.4492 15.5939 17.743 15.3001 18.1054 15.3001H24.1155C24.4779 15.3001 24.7717 15.5939 24.7717 15.9563V18.8369C24.7717 19.1993 24.4779 19.4932 24.1155 19.4932ZM16.1875 16.9649V22.3356C16.1875 22.698 15.8936 22.9918 15.5312 22.9918H10.8929C10.5305 22.9918 10.2367 22.698 10.2367 22.3356V16.9649C10.2367 16.6025 10.5305 16.3086 10.8929 16.3086H15.5312C15.8936 16.3086 16.1875 16.6025 16.1875 16.9649ZM14.875 17.6211H11.5492V21.6793H14.875V17.6211ZM11.2263 9.86025V4.09091C11.2263 3.72849 11.5201 3.43466 11.8825 3.43466H30.0902C30.4526 3.43466 30.7464 3.72849 30.7464 4.09091V9.86098C30.7464 10.2047 30.4812 10.4902 30.1383 10.5155C28.6673 10.6239 26.5798 10.4152 25.1326 9.50554C22.3344 7.74679 19.512 7.76509 16.7436 9.55968C15.6179 10.2894 14.0007 10.5449 12.6344 10.5449C12.3541 10.5449 12.0846 10.5341 11.8318 10.5145C11.4901 10.4881 11.2263 10.2031 11.2263 9.86025ZM12.5388 9.23312C13.9255 9.25125 15.2511 8.96307 16.0296 8.45833C17.6301 7.4208 19.2755 6.88957 20.9203 6.87939C20.9364 6.87923 20.9527 6.87923 20.9686 6.87923C22.5957 6.87923 24.2312 7.38881 25.831 8.39427C26.6781 8.92673 28.044 9.23681 29.4339 9.23016V4.74716H12.5388V9.23312ZM6.7487 8.66858V5.30169C6.7487 4.56464 7.34835 3.96499 8.0854 3.96499H9.12383V2.72336C9.12383 1.95613 9.77786 1.33203 10.5818 1.33203H31.3909C32.1949 1.33203 32.8489 1.95613 32.8489 2.72336V3.96499H33.9147C34.6517 3.96499 35.2514 4.56464 35.2514 5.30169V8.66858C35.2514 9.40563 34.6517 10.0053 33.9147 10.0053H32.8489V11.0718C32.8489 11.8172 32.2317 12.4274 31.4594 12.4617C30.9172 12.5587 27.0127 13.1706 24.0136 11.2856C21.8832 9.94638 19.9938 9.95827 17.8872 11.3238C16.2405 12.3915 14.2344 12.6405 12.721 12.6405C11.5976 12.6405 10.7457 12.5033 10.5133 12.4617C9.74095 12.4275 9.12375 11.8172 9.12375 11.0718V10.0053H8.08531C7.34826 10.0053 6.7487 9.40563 6.7487 8.66858ZM10.4362 11.0718C10.4362 11.0921 10.4863 11.1508 10.5817 11.1508C10.6239 11.1508 10.666 11.1549 10.7074 11.1629C10.7453 11.1701 14.6015 11.8899 17.1733 10.2225C19.6959 8.58712 22.162 8.57137 24.7121 10.1743C27.4266 11.8804 31.2272 11.1703 31.2654 11.1628C31.3065 11.1549 31.349 11.1508 31.3909 11.1508C31.4864 11.1508 31.5364 11.0921 31.5364 11.0718V2.72345C31.5364 2.70318 31.4864 2.64461 31.3909 2.64461H10.5818C10.4863 2.64461 10.4363 2.70318 10.4363 2.72345L10.4362 11.0718ZM30.1119 16.0456H26.9539C26.5915 16.0456 26.2976 16.3394 26.2976 16.7018V18.8368C26.2976 19.1993 26.5915 19.4931 26.9539 19.4931H30.1119C30.4743 19.4931 30.7682 19.1993 30.7682 18.8368V16.7018C30.7682 16.3394 30.4743 16.0456 30.1119 16.0456ZM28.2033 20.042H18.9499C18.5874 20.042 18.2936 20.3359 18.2936 20.6983V22.3356C18.2936 22.698 18.5874 22.9918 18.9499 22.9918H28.2033C28.5657 22.9918 28.8596 22.698 28.8596 22.3356V20.6983C28.8596 20.3359 28.5657 20.042 28.2033 20.042ZM41.9178 19.9466C41.9178 19.9605 41.9181 19.9745 41.918 19.9883V35.28C41.918 38.3061 36.4991 39.9372 33.269 40.6402C33.1902 40.6573 33.1115 40.6658 33.0338 40.6658C32.7934 40.6658 32.5629 40.5843 32.3682 40.4273C32.1107 40.2199 31.9689 39.9234 31.9689 39.5926V30.9946C28.7105 30.3732 24.9326 30.0452 21 30.0452C17.0674 30.0452 13.2895 30.3732 10.0311 30.9946V39.5926C10.0311 39.9234 9.88926 40.2198 9.6316 40.4275C9.43694 40.5843 9.2066 40.6658 8.96617 40.6658C8.88848 40.6658 8.80973 40.6572 8.73082 40.6401C5.50092 39.9372 0.0820992 38.3061 0.0820992 35.28V19.9883C0.0819351 19.9745 0.0820992 19.9606 0.0822633 19.9466C0.0822633 19.9457 0.0820992 19.9449 0.0820992 19.944C0.0820992 19.9427 0.0822633 19.9414 0.0822633 19.9401C0.0822633 19.9313 0.0822633 19.9225 0.0822633 19.9137C0.0829195 19.8698 0.0852164 19.8246 0.0886617 19.7775C0.36642 15.6316 10.9928 13.3967 21 13.3967C31.0071 13.3967 41.6336 15.6316 41.9113 19.7775C41.9148 19.8246 41.9171 19.8698 41.9177 19.9137C41.9179 19.9225 41.9177 19.9313 41.9177 19.9401C41.9177 19.9414 41.9179 19.9427 41.9179 19.944C41.9179 19.9449 41.9179 19.9457 41.9178 19.9466ZM20.3437 27.3559C19.8056 27.1775 19.3635 26.7867 19.1181 26.2827C18.4699 26.5223 17.8193 26.6429 17.1687 26.6429C16.5181 26.6429 15.8675 26.5223 15.2193 26.2827C14.974 26.7867 14.5319 27.1775 13.9937 27.3559V29.0907C16.0183 28.8762 18.1553 28.7562 20.3437 28.7362V27.3559ZM28.0063 27.356C27.4705 27.1784 27.03 26.7901 26.784 26.2894C26.1418 26.5246 25.4973 26.6429 24.8527 26.6429C24.1961 26.6429 23.5395 26.5202 22.8853 26.2761C22.6406 26.7833 22.1968 27.1769 21.6562 27.356V28.7363C23.8447 28.7563 25.9817 28.8763 28.0063 29.0908V27.356ZM40.602 19.8783C40.5304 18.6772 38.5025 17.3851 35.1439 16.4085C31.3748 15.3127 26.3517 14.7091 20.9999 14.7091C15.6481 14.7091 10.625 15.3126 6.85591 16.4085C3.49731 17.3851 1.46941 18.6772 1.3978 19.8783C1.30149 21.3654 4.27611 22.9882 8.9911 24.0175C9.6033 24.1511 10.0309 24.6821 10.0309 25.3086V29.6591C10.8835 29.5016 11.7684 29.3629 12.681 29.2446V27.3558C11.8482 27.0798 11.2455 26.2942 11.2455 25.3701C11.2455 24.2166 12.1838 23.2783 13.3373 23.2783C14.3408 23.2783 15.1813 23.9887 15.3828 24.933C16.5815 25.4601 17.7557 25.4601 18.9544 24.933C19.1559 23.9887 19.9964 23.2783 20.9999 23.2783C22.0034 23.2783 22.8377 23.9837 23.0431 24.9231C24.242 25.4572 25.4163 25.4632 26.6146 24.943C26.8123 23.9937 27.6553 23.2783 28.6624 23.2783C29.8159 23.2783 30.7542 24.2167 30.7542 25.3701C30.7542 26.2943 30.1516 27.0799 29.3187 27.3559V29.2447C30.2314 29.3629 31.1162 29.5016 31.9688 29.6592V25.3087C31.9688 24.6821 32.3963 24.1512 33.0086 24.0175C37.7236 22.9882 40.6982 21.3654 40.6019 19.8784L40.602 19.8783Z" fill="#9E9E9E"/>
</svg>
